# xmcd CD database file
#
# Track frame offsets:
#	150
#	22992
#	41460
#	65400
#	84732
#	109672
#	128754
#	146450
#	166792
#	189952
#	211042
#	228597
#	247415
#	267767
#
# Disc length: 3788 seconds
#
# Revision: 0
# Processed by: cddbd v1.5.1PL0 Copyright (c) Steve Scherf et al.
# Submitted via: CDex 1.51
#
DISCID=b80eca0e
DTITLE=Kenny G - At Last...The Duets Album
DYEAR=2005
DGENRE=Jazz
TTITLE0=(Everything I Do) I Do It For You
TTITLE1=At Last
TTITLE2=I Believe I Can Fly
TTITLE3=Careless Whisper
TTITLE4=Beautiful
TTITLE5=Pick Up The Pieces
TTITLE6=Baby Come To Me
TTITLE7=Misty
TTITLE8=Don't Know Why
TTITLE9=The Way You Move
TTITLE10=Sorry Seems To Be The Hardest Word
TTITLE11=Alfie
TTITLE12=The Music That Makes Me Dance
TTITLE13=Fantasias
EXTD=YEAR: 2005
EXTT0=
EXTT1=
EXTT2=
EXTT3=
EXTT4=
EXTT5=
EXTT6=
EXTT7=
EXTT8=
EXTT9=
EXTT10=
EXTT11=
EXTT12=
EXTT13=
PLAYORDER=
